<svg width="1412" height="859" viewBox="0 0 1412 859" fill="none" xmlns="http://www.w3.org/2000/svg">
<circle cx="988.5" cy="325.5" r="240.538" stroke="black" stroke-width="17.9239"/>
<path fill-rule="evenodd" clip-rule="evenodd" d="M956.354 442.617C966.717 439.294 978.789 438.379 991.268 440.535C1023.65 446.129 1044.94 481.566 1042.34 494.467C1039.74 507.367 1008.52 533.733 976.135 528.139C959.754 525.31 945.808 517.733 936.566 507.805C930.806 501.617 935.213 492.509 940.805 486.169C941.254 485.659 941.69 485.131 942.11 484.584C947.096 478.099 949.032 470.231 948.144 462.702C947.189 454.618 948.602 445.102 956.354 442.617ZM869.992 404.327C874.149 397.329 881.055 390.633 888.72 393.372C898.97 397.034 909.113 403.648 917.712 412.948C940.023 437.079 943.496 470.152 925.471 486.818C907.445 503.484 874.746 497.433 852.435 473.302C841.149 461.095 834.683 446.6 833.382 433.098C832.571 424.684 841.607 420.132 849.9 418.497C850.567 418.366 851.233 418.211 851.899 418.033C859.8 415.916 866.121 410.845 869.992 404.327ZM798.822 311.751C803.428 304.662 813.332 306.727 820.84 310.612C821.443 310.924 822.061 311.218 822.693 311.493C830.194 314.756 838.298 314.725 845.386 312.036C852.996 309.149 862.57 308.211 866.862 315.127C872.601 324.375 876.419 335.864 877.356 348.494C879.787 381.268 861.911 409.309 837.429 411.126C812.946 412.942 791.128 387.845 788.696 355.07C787.467 338.492 791.433 323.125 798.822 311.751ZM1160.01 282.971C1175.12 282.971 1187.51 294.666 1188.6 309.502L1188.68 309.498C1188.68 309.968 1188.68 310.436 1188.67 310.901C1188.68 311.149 1188.68 311.399 1188.68 311.648C1188.68 312.379 1188.66 313.104 1188.6 313.821C1185.93 386.48 1115.93 396.966 1094.05 396.966C1129.73 383.312 1134.79 343.567 1132.5 319.773C1131.74 317.197 1131.33 314.47 1131.33 311.648C1131.33 295.81 1144.17 282.971 1160.01 282.971ZM851.009 192.269C859.379 189.771 865.442 198.413 868.308 206.665C868.819 208.137 869.452 209.589 870.209 211.007C873.731 217.599 879.355 222.348 885.813 224.866C893.485 227.858 901.324 233.675 899.867 241.78C898.147 251.352 894.199 261.217 887.976 270.397C869.535 297.6 838.113 308.486 817.792 294.712C797.471 280.937 795.947 247.716 814.388 220.512C824.148 206.114 837.546 196.288 851.009 192.269ZM1092.95 187.251C1114.68 175.818 1144.7 190.127 1160 219.21C1167.28 233.04 1169.92 247.722 1168.35 260.547C1167.56 266.996 1160.49 269.791 1153.99 269.791C1144.13 269.791 1135.38 274.529 1129.89 281.852C1124.95 288.439 1117.23 294.438 1109.98 290.535C1098.79 284.509 1088.46 274.164 1081.33 260.612C1066.02 231.529 1071.23 198.684 1092.95 187.251ZM920.669 134.385C936.266 130.114 951.682 130.889 964.091 135.598C972.308 138.717 971.989 149.352 969.331 157.73C969.057 158.594 968.819 159.479 968.62 160.382C966.871 168.308 968.421 176.194 972.354 182.607C976.757 189.787 979.544 199.45 973.172 204.957C965.425 211.652 955.509 217.02 944.148 220.131C912.45 228.81 881.497 216.651 875.014 192.973C868.53 169.295 888.971 143.064 920.669 134.385ZM983.219 147.106C994.37 125.236 1027.15 119.608 1056.42 134.537C1069.16 141.028 1079.13 150.338 1085.42 160.585C1089.97 168 1083.45 176.306 1076.34 181.325C1068.82 186.637 1064.47 194.769 1063.72 203.276C1062.94 212.013 1059.18 221.939 1050.41 222.08C1039.41 222.257 1027.46 219.561 1016.04 213.737C986.762 198.808 972.067 168.977 983.219 147.106Z" fill="#00DFEB"/>
<path fill-rule="evenodd" clip-rule="evenodd" d="M263.436 349.453C277.003 344.231 286.531 349.292 293.327 357.757C340.669 353.887 429.889 350.678 516.726 360.118C516.646 359.864 516.564 359.612 516.477 359.365C515.622 356.924 516.443 353.801 518.839 352.824C525.174 350.243 534.152 347.284 539.591 347.825C548.336 348.696 581.567 365.087 575.967 378.014C572.423 386.192 568.529 386.621 564.737 391.199C563.552 392.63 562.526 395.165 561.643 397.948L559.225 406.97C558.968 408 558.741 408.89 558.536 409.56L558.532 409.559L548.577 446.709C577.303 448.277 609.799 451.546 643.692 458.363C648.681 459.366 651.382 464.774 649.282 469.393L640.501 488.708C635.2 500.367 622.627 506.815 609.938 504.834C511.5 488.708 344.5 493.002 221.363 500.307C207.836 502.572 204.695 511.918 195.806 511.919C186.916 511.919 165.354 499.854 175.79 471.536C184.139 448.883 219.742 450.47 250.003 448.883C255.227 448.609 260.547 448.357 265.951 448.123C268.269 431.364 265.492 416.275 259.099 396.764C255.297 385.162 250.79 375.541 247.253 368.853C245.487 365.515 243.973 362.924 242.921 361.2C241.955 359.618 242.306 358.321 243.997 357.601C249.743 355.153 262.962 349.654 263.436 349.453ZM350 386.756C333.678 387.343 319.268 388.19 307.596 389.09C312.298 405.296 314.996 423.498 313.499 439.5C313.268 441.965 312.962 444.327 312.59 446.584C324.85 446.288 337.354 446.058 350 445.88V386.756ZM394.892 445.443C402.873 445.394 410.863 445.359 418.836 445.333V386.18C410.687 386.02 402.687 385.949 394.892 385.949V445.443ZM463.727 445.268C469.846 445.266 475.926 445.264 481.956 445.264C485.232 445.264 488.666 445.268 492.247 445.279C495.039 438.764 500.364 427.873 507.009 408.214C508.617 403.455 510.38 397.44 511.848 392.208C495.904 390.329 479.736 388.947 463.727 387.968V445.268ZM396.073 140.238C404.12 138.322 437.837 148.064 435.922 166.838C435.805 167.985 435.666 169.04 435.512 170.015C460.209 170.703 485.91 172.384 511.254 175.507C511.175 175.262 511.095 175.019 511.011 174.781C510.142 172.344 510.961 169.225 513.355 168.245C519.862 165.585 529.154 162.507 534.768 163.067C543.742 163.961 577.835 180.778 572.088 194.04C568.452 202.43 564.458 202.871 560.567 207.568C559.352 209.036 558.298 211.636 557.392 214.491C550.814 239.042 543.963 263.505 537.202 288.006C536.657 289.919 536.266 291.211 536.088 291.64C534.432 295.626 522.891 299.178 515.203 299.332C507.556 299.486 498.863 294.336 492.581 287.396C488.101 286.893 483.607 286.441 479.109 286.034C484.115 293.509 492.247 303.421 501 305C511.785 306.946 492.5 348.36 475.815 350.552C469.728 351.352 462.981 341.869 455.685 339.373C435.953 338.096 416.228 337.322 396.455 337.322C379.5 337.322 356.055 338.351 351.499 339.001C340.865 340.519 340.97 345.928 333.999 346.002C327.026 346.075 303.002 331.001 320 311.001C328.517 300.98 351.536 297.292 379.775 296.798C379.61 293.106 379.827 288.482 380.213 283.446C356.126 284.165 334.861 285.707 318.776 287.339C315.103 294.516 310.32 300.246 304.72 301.55C295.126 303.783 290.303 300.657 282.978 297.65C277.118 295.244 264.165 294.723 261.1 295.11C270.005 286.682 274.383 278.127 276.532 271.57C279.383 253.628 276.568 237.762 269.774 217.031C265.874 205.127 261.251 195.256 257.622 188.395C255.811 184.97 254.256 182.311 253.177 180.543C252.186 178.92 252.546 177.59 254.281 176.851C260.177 174.339 273.743 168.696 274.226 168.491C287.009 163.571 296.295 167.549 303.127 174.957C322.532 172.859 349.551 170.804 380.54 169.995C379.718 166.755 378.351 163.497 376.996 161.111C376.007 159.368 375.935 157.083 377.254 155.574C382.268 149.839 390.577 141.546 396.073 140.238ZM426.827 283.211C426.937 287.869 427.091 292.847 427.295 298.213C433.715 298.625 440.15 299.101 446.518 299.616C449.173 299.831 451.3 297.448 450.777 294.836L448.599 283.951C441.272 283.604 433.999 283.36 426.827 283.211ZM427.851 203.133C427.724 220.215 427.03 233.172 426.727 249.173C447.498 249.563 469.116 250.646 490.745 252.704C493.6 246.094 497.224 237.198 501.339 225.024C502.959 220.231 504.73 214.2 506.219 208.902C480.245 205.407 453.431 203.694 427.851 203.133ZM383.017 203.243C357.889 203.897 335.662 205.444 318.937 207.092C323.629 222.108 326.911 237.316 326.992 252.217C343.192 250.917 362.18 249.831 382.886 249.319C382.89 248.959 382.896 248.604 382.896 248.255C382.896 235.646 383.292 219.079 383.017 203.243Z" fill="black"/>
<path d="M226.36 751.791C199.767 751.791 179.098 730.296 179.098 701.774C179.098 673.527 200.18 651.756 229.254 651.756C251.024 651.756 265.906 662.641 273.209 677.798L257.501 686.341C253.091 676.282 243.17 668.98 229.254 668.98C211.479 668.98 197.562 682.345 197.562 701.774C197.562 721.478 211.203 734.568 228.978 734.568C243.308 734.568 255.847 725.887 258.603 712.659H229.943V696.813H276.929V750H258.603V734.981H255.847C251.576 745.591 241.241 751.791 226.36 751.791ZM337.241 751.791C308.03 751.791 287.086 730.296 287.086 701.774C287.086 673.527 308.167 651.756 337.379 651.756C366.866 651.756 387.81 673.802 387.81 701.774C387.81 730.02 366.728 751.791 337.241 751.791ZM305.549 701.774C305.549 721.478 319.742 734.568 337.379 734.568C355.016 734.568 369.346 721.478 369.346 701.774C369.346 682.345 355.016 668.98 337.379 668.98C319.742 668.98 305.549 682.345 305.549 701.774ZM445.363 751.791C416.151 751.791 395.207 730.296 395.207 701.774C395.207 673.527 416.289 651.756 445.501 651.756C474.988 651.756 495.932 673.802 495.932 701.774C495.932 730.02 474.85 751.791 445.363 751.791ZM413.671 701.774C413.671 721.478 427.864 734.568 445.501 734.568C463.138 734.568 477.468 721.478 477.468 701.774C477.468 682.345 463.138 668.98 445.501 668.98C427.864 668.98 413.671 682.345 413.671 701.774ZM536.243 750V653.547H596.181V670.082H554.018V692.817H591.496V708.939H554.018V733.465H597.697V750H536.243ZM656.429 751.791C626.942 751.791 606.273 730.296 606.273 701.774C606.273 673.527 627.08 651.756 656.567 651.756C678.337 651.756 693.494 662.917 700.797 678.763L684.676 687.168C680.542 676.42 670.208 668.98 656.567 668.98C638.792 668.98 624.737 682.345 624.737 701.774C624.737 721.478 638.792 734.568 656.567 734.568C670.208 734.568 682.471 726.438 686.329 712.659L702.726 720.375C696.526 738.426 679.44 751.791 656.429 751.791ZM760.379 751.791C731.168 751.791 710.224 730.296 710.224 701.774C710.224 673.527 731.306 651.756 760.517 651.756C790.004 651.756 810.948 673.802 810.948 701.774C810.948 730.02 789.866 751.791 760.379 751.791ZM728.688 701.774C728.688 721.478 742.88 734.568 760.517 734.568C778.154 734.568 792.484 721.478 792.484 701.774C792.484 682.345 778.154 668.98 760.517 668.98C742.88 668.98 728.688 682.345 728.688 701.774ZM824.546 750V653.547H857.754L884.898 734.43H887.241V653.547H904.74V750H871.257L844.388 669.117H841.908V750H824.546ZM968.415 751.791C939.204 751.791 918.259 730.296 918.259 701.774C918.259 673.527 939.341 651.756 968.553 651.756C998.04 651.756 1018.98 673.802 1018.98 701.774C1018.98 730.02 997.902 751.791 968.415 751.791ZM936.723 701.774C936.723 721.478 950.916 734.568 968.553 734.568C986.19 734.568 1000.52 721.478 1000.52 701.774C1000.52 682.345 986.19 668.98 968.553 668.98C950.916 668.98 936.723 682.345 936.723 701.774ZM1069.37 750L1052.7 669.117H1049.94V750H1032.58V653.547H1067.3L1083.98 734.43H1086.6L1103.68 653.547H1138.4V750H1121.04V669.117H1118.29L1101.61 750H1069.37ZM1183.55 750V711.97H1180.24L1148.96 655.89V653.547H1167.98L1191.13 696.538H1194.02L1216.62 653.547H1236.19V655.89L1204.49 711.97H1201.46V750H1183.55Z" fill="black"/>
</svg>
