<svg xmlns="http://www.w3.org/2000/svg" viewBox="0 0 120 120" fill="none">
  <!-- Background -->
  <rect width="120" height="120" rx="28" fill="#FF4D2E"/>
  
  <!-- Claw Left -->
  <path d="M35 45C35 45 25 55 25 70C25 85 35 95 45 90C50 87 52 80 50 75C48 70 42 68 40 72C38 76 42 78 45 76" 
        stroke="white" stroke-width="5" stroke-linecap="round" stroke-linejoin="round" fill="none"/>
  
  <!-- Claw Right -->
  <path d="M85 45C85 45 95 55 95 70C95 85 85 95 75 90C70 87 68 80 70 75C72 70 78 68 80 72C82 76 78 78 75 76" 
        stroke="white" stroke-width="5" stroke-linecap="round" stroke-linejoin="round" fill="none"/>
  
  <!-- Center Body -->
  <ellipse cx="60" cy="70" rx="12" ry="18" fill="white"/>
  
  <!-- Top Connection -->
  <path d="M55 55C55 50 58 45 60 42C62 45 65 50 65 55" 
        stroke="white" stroke-width="4" stroke-linecap="round" fill="none"/>
  
  <!-- Decorative Dots -->
  <circle cx="48" cy="65" r="3" fill="#FF4D2E"/>
  <circle cx="72" cy="65" r="3" fill="#FF4D2E"/>
  <circle cx="60" cy="75" r="4" fill="#FF4D2E"/>
</svg>