<?xml version="1.0" encoding="UTF-8"?>
<!-- Generator: visioncortex VTracer 0.6.4 -->
<svg version="1.1" xmlns="http://www.w3.org/2000/svg" width="1024" height="1024">
<path d="M0 0 C4.143 3.846 7.165 7.924 10.188 12.688 C10.662 13.431 11.137 14.174 11.626 14.94 C16.779 23.099 21.524 31.453 26 40 C26.584 41.109 26.584 41.109 27.18 42.24 C36.416 60.018 42.794 79.221 46 99 C46.267 100.577 46.267 100.577 46.539 102.185 C47.924 110.981 48.314 119.542 48.25 128.438 C48.247 129.131 48.243 129.825 48.24 130.54 C48.086 157.138 44.281 182.406 37 208 C36.756 208.966 36.513 209.931 36.262 210.926 C34.488 217.931 31.872 224.379 29 231 C28.249 232.854 27.499 234.708 26.75 236.562 C14.192 266.476 -3.004 293.272 -25.191 316.969 C-27.367 319.298 -29.452 321.682 -31.5 324.125 C-48.88 344.095 -72.412 358.824 -95 372 C-82.46 372 -69.92 372 -57 372 C-60.07 375.838 -62.321 378.251 -66.062 381.188 C-71.032 385.17 -75.757 389.348 -80.441 393.66 C-82.638 395.669 -84.865 397.625 -87.125 399.562 C-90.859 402.801 -94.304 406.287 -97.773 409.805 C-100.446 412.44 -103.254 414.878 -106.102 417.32 C-108.557 419.493 -110.831 421.818 -113.126 424.157 C-114.933 425.934 -116.794 427.595 -118.715 429.246 C-122.933 432.914 -127.007 436.717 -131.062 440.562 C-132.558 441.976 -134.054 443.388 -135.551 444.801 C-136.295 445.504 -137.04 446.207 -137.807 446.932 C-149.714 458.16 -161.731 469.273 -173.812 480.312 C-179.28 485.311 -184.68 490.379 -190.077 495.452 C-194.974 500.05 -199.915 504.596 -204.875 509.125 C-208.613 512.552 -212.305 516.027 -216 519.5 C-222.619 525.72 -229.295 531.873 -236 538 C-245.357 546.55 -245.357 546.55 -254.398 555.43 C-256.183 557.179 -258.044 558.807 -259.938 560.438 C-263.461 563.472 -266.72 566.7 -269.98 570.012 C-272.629 572.619 -275.413 575.044 -278.238 577.457 C-280.025 578.973 -280.025 578.973 -281.605 580.699 C-283 582 -283 582 -285 582 C-285.33 582.99 -285.66 583.98 -286 585 C-287.391 586.402 -287.391 586.402 -289.25 587.938 C-292.981 591.103 -296.601 594.361 -300.188 597.688 C-300.744 598.203 -301.3 598.718 -301.873 599.248 C-303.016 600.308 -304.16 601.368 -305.303 602.428 C-306.933 603.938 -308.565 605.444 -310.199 606.949 C-319.822 615.813 -329.385 624.741 -338.934 633.684 C-345.094 639.45 -351.274 645.186 -357.562 650.812 C-365.047 657.529 -372.41 664.376 -379.75 671.25 C-384.078 675.302 -388.428 679.304 -392.922 683.172 C-396.367 686.203 -399.717 689.338 -403.083 692.458 C-406.366 695.498 -409.667 698.514 -413 701.5 C-416.867 704.965 -420.69 708.473 -424.5 712 C-429.144 716.298 -433.819 720.558 -438.531 724.781 C-441.241 727.216 -443.933 729.67 -446.625 732.125 C-451.038 736.138 -455.477 740.111 -460 744 C-460.954 744.821 -461.908 745.642 -462.891 746.488 C-469.602 752.232 -476.447 757.77 -483.418 763.195 C-485.815 765.063 -488.191 766.953 -490.551 768.867 C-499.76 776.332 -509.223 783.4 -518.8 790.386 C-522.221 792.896 -525.612 795.445 -529 798 C-529.33 797.34 -529.66 796.68 -530 796 C-529.202 793.815 -529.202 793.815 -527.895 791.066 C-527.412 790.039 -526.929 789.012 -526.432 787.954 C-525.63 786.275 -525.63 786.275 -524.812 784.562 C-523.69 782.173 -522.568 779.782 -521.449 777.391 C-521.161 776.776 -520.872 776.161 -520.575 775.528 C-517.67 769.328 -514.889 763.076 -512.125 756.812 C-507.971 747.431 -503.803 738.056 -499.592 728.7 C-499.002 727.387 -498.413 726.074 -497.825 724.76 C-494.3 716.888 -490.597 709.131 -486.708 701.432 C-483.949 695.888 -481.389 690.255 -478.812 684.625 C-474.144 674.475 -469.288 664.434 -464.246 654.463 C-461.17 648.372 -458.198 642.245 -455.312 636.062 C-452.21 629.43 -448.937 622.919 -445.445 616.483 C-441.443 609.084 -437.744 601.531 -434 594 C-431.384 588.744 -428.765 583.49 -426.146 578.236 C-425.381 576.702 -424.617 575.168 -423.854 573.634 C-418.732 563.332 -413.473 553.12 -408 543 C-409.064 543.343 -410.127 543.685 -411.223 544.038 C-418.801 546.469 -426.373 548.674 -434.108 550.541 C-439.865 551.937 -445.531 553.567 -451.207 555.266 C-454 556 -454 556 -457 556 C-455.137 549.353 -452.909 543.026 -450.164 536.695 C-449.803 535.85 -449.442 535.005 -449.069 534.134 C-447.926 531.462 -446.776 528.794 -445.625 526.125 C-444.861 524.345 -444.098 522.565 -443.336 520.785 C-442.225 518.191 -441.113 515.598 -440 513.005 C-437.69 507.624 -435.414 502.231 -433.172 496.822 C-420.886 467.238 -420.886 467.238 -413.758 453.441 C-410.998 448.039 -408.508 442.523 -406 437 C-406.929 437.243 -407.859 437.486 -408.817 437.737 C-418.776 440.304 -428.782 442.456 -438.873 444.434 C-441.506 444.951 -444.137 445.474 -446.767 445.998 C-454.289 447.494 -461.813 448.974 -469.352 450.383 C-485.319 453.395 -500.609 457.819 -516 463 C-516.291 453.23 -515.198 443.639 -514.188 433.938 C-514.001 432.127 -513.815 430.316 -513.628 428.506 C-513.173 424.107 -512.71 419.709 -512.243 415.311 C-512.029 413.278 -511.821 411.245 -511.613 409.211 C-506.697 361.293 -493.895 314.272 -475 270 C-474.43 268.661 -474.43 268.661 -473.848 267.295 C-450.382 212.677 -414.553 160.63 -369 122 C-367.985 121.122 -366.971 120.243 -365.957 119.363 C-362.941 116.75 -359.903 114.163 -356.858 111.584 C-355.125 110.107 -353.412 108.61 -351.699 107.109 C-332.246 90.399 -309.51 76.197 -287 64 C-285.903 63.392 -285.903 63.392 -284.783 62.771 C-271.253 55.278 -257.248 48.998 -243 43 C-242.057 42.599 -241.113 42.198 -240.142 41.785 C-207.674 28.091 -173.056 20.219 -138.229 15.443 C-135.944 15.129 -133.661 14.797 -131.381 14.452 C-120.551 12.914 -109.925 12.764 -99 12.875 C-97.242 12.885 -95.484 12.894 -93.727 12.902 C-89.484 12.924 -85.242 12.958 -81 13 C-84.764 18.214 -88.727 22.999 -93.188 27.625 C-99.082 33.859 -104.395 40.398 -109.61 47.203 C-112.032 50.335 -114.519 53.415 -117 56.5 C-120.826 61.266 -124.615 66.057 -128.375 70.875 C-132.517 76.178 -136.769 81.382 -141.062 86.562 C-145.17 91.52 -149.222 96.504 -153.125 101.625 C-153.907 102.646 -154.69 103.667 -155.496 104.719 C-156.83 106.462 -158.158 108.21 -159.477 109.965 C-161.034 112.029 -162.609 114.078 -164.188 116.125 C-164.663 116.765 -165.138 117.405 -165.627 118.065 C-168.998 122.393 -171.729 124.364 -177 126 C-178.666 126.041 -180.334 126.049 -182 126 C-181.958 126.63 -181.916 127.26 -181.873 127.908 C-181.706 130.792 -181.602 133.675 -181.5 136.562 C-181.399 138.048 -181.399 138.048 -181.297 139.564 C-181.106 146.763 -181.106 146.763 -183.397 149.932 C-185.503 151.794 -187.696 153.39 -190 155 C-205.322 166.061 -205.322 166.061 -213.991 182.105 C-214.662 187.986 -214.39 193.838 -214.109 199.735 C-213.548 212.106 -216.314 220.208 -224 230 C-197.535 224.187 -173.384 212.031 -151 197 C-149.757 196.179 -148.514 195.358 -147.27 194.539 C-144.503 192.708 -141.748 190.86 -139 189 C-137.515 188.01 -137.515 188.01 -136 187 C-135.346 184.483 -134.884 182.122 -134.5 179.562 C-134.363 178.81 -134.226 178.058 -134.085 177.283 C-133.368 173.211 -132.945 169.349 -132.988 165.211 C-132.873 158.858 -132.498 153.489 -127.806 148.814 C-121.955 144.238 -115.574 140.557 -109.142 136.867 C-104.466 134.089 -100.114 130.926 -95.75 127.688 C-94.328 126.65 -92.906 125.612 -91.484 124.574 C-90.321 123.718 -89.16 122.86 -88 122 C-87.268 121.564 -86.537 121.127 -85.783 120.678 C-83.743 119.121 -83.743 119.121 -83.724 116.527 C-83.811 115.555 -83.898 114.583 -83.988 113.582 C-84.999 94.619 -84.999 94.619 -80.148 88.707 C-76.673 85.305 -72.784 82.399 -68.939 79.429 C-63.395 74.847 -58.413 69.67 -53.359 64.561 C-51.545 62.733 -49.718 60.919 -47.887 59.108 C-41.127 52.388 -34.847 45.543 -29 38 C-28.167 36.932 -28.167 36.932 -27.317 35.842 C-25.803 33.883 -24.305 31.913 -22.812 29.938 C-17.427 22.849 -11.98 15.811 -6.493 8.801 C-5.935 8.085 -5.376 7.37 -4.801 6.633 C-4.307 6.003 -3.814 5.372 -3.306 4.723 C-2.145 3.192 -1.066 1.599 0 0 Z " fill="#1F1F1F" transform="translate(752,122)"/>
<path d="M0 0 C-2.59 4.714 -5.895 8.689 -9.312 12.812 C-13.182 17.498 -16.958 22.221 -20.582 27.1 C-22.715 29.958 -24.916 32.762 -27.125 35.562 C-27.589 36.152 -28.052 36.741 -28.53 37.348 C-32.586 42.494 -36.673 47.615 -40.784 52.716 C-44.108 56.848 -47.319 61.046 -50.402 65.363 C-53.86 68.905 -58.887 69.552 -63.562 70.625 C-64.678 70.885 -65.793 71.146 -66.941 71.414 C-70 72 -70 72 -74 72 C-73.916 72.83 -73.832 73.66 -73.746 74.516 C-71.523 99.869 -71.523 99.869 -77.141 106.91 C-80.419 110.158 -84.072 112.846 -87.87 115.456 C-91.218 117.883 -94.015 120.779 -96.875 123.75 C-97.614 124.486 -97.614 124.486 -98.368 125.237 C-102.867 129.677 -102.867 129.677 -104.176 135.698 C-104.157 137.243 -104.13 138.788 -104.098 140.332 C-104.094 142.036 -104.092 143.74 -104.092 145.443 C-104.084 148.112 -104.063 150.778 -104.004 153.446 C-103.755 165.816 -105.159 173.539 -112.778 183.358 C-114.802 186.078 -116.471 188.992 -118.168 191.922 C-118.834 193.05 -119.5 194.178 -120.186 195.34 C-120.846 196.465 -121.507 197.591 -122.188 198.75 C-122.866 199.902 -123.545 201.055 -124.225 202.207 C-125.543 204.444 -126.862 206.681 -128.18 208.919 C-130.258 212.437 -132.359 215.942 -134.465 219.444 C-146.282 239.123 -157.852 258.933 -169 279 C-123.46 279 -77.92 279 -31 279 C-32.585 282.964 -33.426 284.832 -36.012 287.891 C-36.601 288.596 -37.191 289.301 -37.798 290.027 C-38.422 290.761 -39.045 291.494 -39.688 292.25 C-40.966 293.777 -42.243 295.304 -43.52 296.832 C-44.431 297.92 -44.431 297.92 -45.362 299.03 C-47.792 301.952 -50.117 304.949 -52.43 307.965 C-54.258 310.334 -56.127 312.667 -58 315 C-61.049 318.801 -64.056 322.631 -67.043 326.48 C-73.482 334.77 -79.98 343 -86.625 351.125 C-91.935 357.62 -97.04 364.233 -102 371 C-101.455 370.866 -100.911 370.732 -100.35 370.593 C-94.872 369.301 -89.543 368.558 -83.938 368.125 C-81.991 367.96 -80.044 367.793 -78.098 367.625 C-76.441 367.482 -76.441 367.482 -74.75 367.336 C-67.12 366.652 -59.498 365.886 -51.875 365.125 C-50.6 364.998 -50.6 364.998 -49.299 364.869 C-39.769 363.92 -30.246 362.932 -20.73 361.852 C-19.91 361.759 -19.089 361.666 -18.243 361.57 C-14.348 361.128 -10.453 360.679 -6.56 360.219 C0.327 359.42 7.061 358.783 14 359 C14 361 14 361 12.707 362.305 C12.082 362.823 11.457 363.341 10.812 363.875 C7.063 367.063 3.42 370.341 -0.188 373.688 C-0.744 374.203 -1.301 374.719 -1.875 375.25 C-3.019 376.311 -4.163 377.372 -5.308 378.433 C-6.924 379.929 -8.543 381.423 -10.164 382.914 C-16.344 388.602 -22.495 394.32 -28.625 400.062 C-29.312 400.706 -30 401.35 -30.708 402.013 C-31.354 402.618 -31.999 403.224 -32.664 403.848 C-33.236 404.384 -33.808 404.92 -34.397 405.473 C-35.491 406.515 -36.553 407.592 -37.583 408.697 C-39 410 -39 410 -41 410 C-41 410.66 -41 411.32 -41 412 C-42.293 413.305 -42.293 413.305 -44.188 414.875 C-48.06 418.168 -51.829 421.552 -55.562 425 C-56.129 425.523 -56.695 426.046 -57.279 426.584 C-60.694 429.751 -64.021 432.984 -67.281 436.312 C-69.035 438.034 -70.852 439.642 -72.715 441.246 C-76.821 444.818 -80.796 448.512 -84.75 452.25 C-91.449 458.557 -98.208 464.793 -105 471 C-114.299 479.489 -114.299 479.489 -123.281 488.312 C-125.04 490.039 -126.862 491.652 -128.73 493.262 C-132.742 496.752 -136.634 500.35 -140.5 504 C-141.902 505.319 -143.305 506.638 -144.707 507.957 C-145.417 508.626 -146.127 509.294 -146.858 509.983 C-156.677 519.229 -166.519 528.447 -176.449 537.574 C-178.031 539.028 -179.611 540.485 -181.191 541.941 C-186.175 546.529 -191.187 551.071 -196.316 555.496 C-197.909 556.919 -199.396 558.398 -200.875 559.938 C-203 562 -203 562 -205 562 C-205 562.66 -205 563.32 -205 564 C-206.328 565.34 -206.328 565.34 -208.25 566.938 C-216.663 574.099 -224.687 581.7 -232.75 589.25 C-237.081 593.304 -241.435 597.307 -245.93 601.18 C-250.484 605.184 -254.898 609.349 -259.346 613.471 C-261.868 615.803 -264.403 618.12 -266.938 620.438 C-270.78 623.955 -274.605 627.49 -278.416 631.041 C-287.095 639.128 -287.095 639.128 -290.938 642.438 C-294.895 645.848 -298.69 649.427 -302.5 653 C-306.914 657.139 -311.345 661.23 -315.93 665.18 C-318.746 667.656 -321.498 670.203 -324.25 672.75 C-324.801 673.26 -325.352 673.77 -325.92 674.295 C-328.184 676.391 -330.447 678.488 -332.71 680.585 C-334.346 682.1 -335.985 683.613 -337.625 685.125 C-338.587 686.014 -339.548 686.904 -340.539 687.82 C-343 690 -343 690 -346 692 C-344.706 687.851 -343.144 684.07 -341.164 680.203 C-340.318 678.537 -340.318 678.537 -339.456 676.837 C-339.158 676.253 -338.859 675.669 -338.552 675.067 C-333.372 664.913 -328.404 654.691 -323.688 644.312 C-319.752 635.669 -315.607 627.219 -311.082 618.871 C-307.883 612.97 -304.935 606.942 -301.958 600.927 C-300.752 598.5 -299.529 596.083 -298.308 593.664 C-295.114 587.324 -292.007 580.946 -288.939 574.545 C-282.737 561.607 -276.375 548.793 -269.68 536.102 C-266.324 529.739 -263.113 523.308 -259.922 516.861 C-258.674 514.343 -257.417 511.83 -256.159 509.316 C-255.515 508.029 -254.871 506.741 -254.228 505.453 C-252.175 501.344 -250.115 497.24 -248.051 493.137 C-247.546 492.131 -247.041 491.126 -246.521 490.09 C-245.517 488.092 -244.512 486.094 -243.505 484.097 C-243.049 483.19 -242.594 482.282 -242.125 481.348 C-241.715 480.533 -241.305 479.718 -240.883 478.879 C-239.929 477.195 -239.929 477.195 -240 476 C-249.3 477.558 -258.329 479.546 -267.392 482.152 C-284.365 487 -284.365 487 -291 487 C-289.075 480.858 -286.797 475.011 -284.113 469.164 C-283.552 467.927 -283.552 467.927 -282.98 466.666 C-281.762 463.984 -280.537 461.304 -279.312 458.625 C-278.456 456.743 -277.601 454.862 -276.746 452.98 C-274.17 447.317 -271.586 441.658 -269 436 C-268.621 435.17 -268.241 434.34 -267.851 433.485 C-264.795 426.799 -261.737 420.114 -258.675 413.431 C-252.368 399.657 -246.17 385.836 -240 372 C-252.983 374.219 -265.9 376.716 -278.812 379.312 C-279.8 379.51 -280.788 379.708 -281.805 379.912 C-295.704 382.699 -309.579 385.577 -323.434 388.582 C-330.315 390.074 -337.203 391.529 -344.096 392.965 C-346.016 393.365 -347.935 393.769 -349.854 394.173 C-351.007 394.412 -352.16 394.652 -353.348 394.898 C-354.369 395.112 -355.39 395.325 -356.442 395.544 C-359 396 -359 396 -362 396 C-361.656 382.754 -360.738 369.841 -358.476 356.781 C-357.962 353.775 -357.485 350.765 -357.008 347.754 C-350.506 307.915 -338.45 269.824 -322 233 C-321.654 232.212 -321.308 231.423 -320.952 230.611 C-315.217 217.578 -308.178 205.284 -301 193 C-300.521 192.178 -300.043 191.356 -299.549 190.509 C-290.558 175.161 -280.331 160.714 -269 147 C-268.261 146.089 -267.523 145.177 -266.762 144.238 C-263.237 139.896 -259.685 135.574 -256.062 131.312 C-255.245 130.348 -255.245 130.348 -254.41 129.363 C-253 128 -253 128 -251 128 C-250.758 127.433 -250.517 126.866 -250.268 126.282 C-248.748 123.547 -246.93 121.688 -244.711 119.48 C-243.851 118.623 -242.991 117.765 -242.105 116.881 C-241.204 115.992 -240.303 115.103 -239.375 114.188 C-238.497 113.31 -237.619 112.433 -236.715 111.529 C-231.636 106.484 -226.453 101.638 -221 97 C-219.932 96.076 -218.864 95.151 -217.797 94.227 C-210.743 88.182 -203.517 82.466 -196 77 C-195.202 76.415 -195.202 76.415 -194.389 75.818 C-172.898 60.068 -150.036 46.503 -126 35 C-125.404 34.71 -124.808 34.419 -124.193 34.12 C-113.358 28.843 -102.243 24.331 -91 20 C-89.194 19.304 -89.194 19.304 -87.352 18.594 C-61.089 8.862 -28.294 -1.155 0 0 Z " fill="#DE332C" transform="translate(622,159)"/>
<path d="M0 0 C3.96 4.424 6.313 9.3 8.812 14.625 C9.25 15.554 9.687 16.484 10.137 17.441 C26.446 52.663 32.492 90.457 26 129 C25.822 130.069 25.645 131.138 25.461 132.239 C14.626 195.398 -17.777 253.615 -69 293 C-69.99 293.795 -70.98 294.591 -72 295.41 C-80.241 301.988 -88.919 307.651 -98 313 C-98.751 313.445 -99.503 313.89 -100.277 314.348 C-113.673 322.203 -127.548 328.354 -142 334 C-142.693 334.276 -143.386 334.551 -144.101 334.835 C-151.42 337.729 -158.887 339.86 -166.5 341.812 C-167.35 342.032 -168.2 342.252 -169.075 342.478 C-173.481 343.562 -177.425 344.26 -182 344 C-179.372 339.187 -176.507 334.838 -173.062 330.562 C-172.589 329.966 -172.115 329.37 -171.627 328.755 C-168.515 324.851 -165.357 320.985 -162.195 317.121 C-161.656 316.462 -161.118 315.804 -160.562 315.125 C-160.016 314.457 -159.469 313.79 -158.906 313.102 C-154.647 307.868 -150.602 302.499 -146.592 297.073 C-142.369 291.399 -137.912 285.941 -133.334 280.549 C-127.493 273.595 -122.421 266.392 -117 259 C-164.52 258.67 -212.04 258.34 -261 258 C-259.513 253.54 -258.272 250.441 -255.953 246.516 C-255.355 245.497 -254.757 244.479 -254.141 243.43 C-253.517 242.38 -252.893 241.331 -252.25 240.25 C-251.642 239.216 -251.033 238.182 -250.406 237.117 C-249.193 235.058 -247.964 233.007 -246.721 230.966 C-244.971 228.065 -244.971 228.065 -243.697 225.122 C-241.728 221.007 -240.358 218.584 -236.072 216.741 C-232.432 215.837 -228.838 215.223 -225.125 214.688 C-222.501 214.241 -219.882 213.766 -217.262 213.297 C-216.005 213.081 -214.749 212.865 -213.455 212.643 C-202.521 210.609 -192.108 206.564 -182 202 C-181.359 201.713 -180.719 201.425 -180.059 201.129 C-159.521 191.862 -141.218 180.099 -123.257 166.558 C-122.486 165.981 -121.716 165.403 -120.922 164.809 C-120.237 164.291 -119.552 163.773 -118.847 163.24 C-117 162 -117 162 -114 161 C-113.944 160.419 -113.889 159.838 -113.832 159.239 C-113.564 156.491 -113.283 153.746 -113 151 C-112.902 150.028 -112.804 149.055 -112.704 148.054 C-110.707 129.614 -110.707 129.614 -107.074 124.051 C-104.503 121.99 -101.918 120.531 -99 119 C-97.155 117.791 -95.351 116.531 -93.545 115.265 C-91.53 113.852 -89.497 112.471 -87.461 111.09 C-80.104 106.044 -72.98 100.67 -65.831 95.338 C-64.25 94.183 -62.629 93.086 -61 92 C-60.671 89.364 -60.671 89.364 -60.875 86.285 C-61.276 64.797 -61.276 64.797 -56.246 59.367 C-53.95 57.365 -51.557 55.653 -49 54 C-44.907 50.905 -41.797 47.554 -38.551 43.609 C-38.039 43.078 -37.527 42.547 -37 42 C-36.34 42 -35.68 42 -35 42 C-34.662 41.167 -34.662 41.167 -34.316 40.316 C-32.611 37.316 -30.433 35.321 -27.938 32.938 C-22.494 27.635 -17.722 21.955 -13 16 C-11.399 14.039 -9.795 12.081 -8.188 10.125 C-5.436 6.767 -2.707 3.394 0 0 Z " fill="#DE322B" transform="translate(751,159)"/>
<path d="M0 0 C1.924 3.638 2.762 7.012 3.562 11.062 C3.811 12.291 4.06 13.519 4.316 14.785 C7.775 34.573 7.333 56.211 4 76 C3.822 77.069 3.645 78.138 3.461 79.239 C-7.374 142.398 -39.777 200.615 -91 240 C-91.99 240.795 -92.98 241.591 -94 242.41 C-102.241 248.988 -110.919 254.651 -120 260 C-121.127 260.667 -121.127 260.667 -122.277 261.348 C-135.673 269.203 -149.548 275.354 -164 281 C-164.693 281.276 -165.386 281.551 -166.101 281.835 C-173.42 284.729 -180.887 286.86 -188.5 288.812 C-189.35 289.032 -190.2 289.252 -191.075 289.478 C-195.481 290.562 -199.425 291.26 -204 291 C-201.372 286.187 -198.507 281.838 -195.062 277.562 C-194.597 276.978 -194.132 276.393 -193.653 275.791 C-187.824 268.483 -181.914 261.239 -176 254 C-175.505 255.98 -175.505 255.98 -175 258 C-135.783 246.026 -98.326 218.245 -71 188 C-70.67 187.34 -70.34 186.68 -70 186 C-69.34 186 -68.68 186 -68 186 C-67.762 185.448 -67.523 184.897 -67.277 184.328 C-65.697 181.448 -63.724 179.226 -61.562 176.75 C-55.442 169.566 -50.197 161.866 -45 154 C-44.577 153.371 -44.154 152.743 -43.719 152.095 C-36.415 141.199 -30.731 129.673 -25.267 117.762 C-24.423 115.921 -23.569 114.085 -22.706 112.254 C-19.709 105.833 -17.217 99.353 -15 92.625 C-14.658 91.589 -14.315 90.553 -13.962 89.486 C-7.931 70.858 -3.265 51.237 -2.211 31.637 C-2 29 -2 29 -1.507 27.201 C-0.883 24.492 -0.783 21.919 -0.684 19.141 C-0.642 18.026 -0.6 16.911 -0.557 15.762 C-0.517 14.603 -0.478 13.444 -0.438 12.25 C-0.373 10.488 -0.373 10.488 -0.307 8.691 C-0.201 5.794 -0.099 2.897 0 0 Z " fill="#C52A26" transform="translate(773,212)"/>
<path d="M0 0 C0.99 0 1.98 0 3 0 C2.67 11.88 2.34 23.76 2 36 C1.34 35.67 0.68 35.34 0 35 C0 23.45 0 11.9 0 0 Z " fill="#101010" transform="translate(536,296)"/>
<path d="M0 0 C0.33 0 0.66 0 1 0 C1.953 5.634 2.183 11.104 2.188 16.812 C2.2 17.67 2.212 18.528 2.225 19.412 C2.227 20.231 2.228 21.051 2.23 21.895 C2.235 22.636 2.239 23.376 2.243 24.14 C2 26 2 26 0 28 C-0.33 25.03 -0.66 22.06 -1 19 C-1.33 19 -1.66 19 -2 19 C-2.099 12.907 -2.173 6.997 -1 1 C-0.67 0.67 -0.34 0.34 0 0 Z " fill="#191918" transform="translate(622,276)"/>
<path d="M0 0 C0.66 0.33 1.32 0.66 2 1 C0.481 4.729 -1.727 6.764 -4.75 9.375 C-8.652 12.796 -12.38 16.285 -16 20 C-16.99 19.67 -17.98 19.34 -19 19 C-17.625 17 -17.625 17 -16 15 C-15.34 15 -14.68 15 -14 15 C-13.67 14.01 -13.34 13.02 -13 12 C-11.377 10.291 -9.707 8.626 -8 7 C-7.464 6.423 -6.928 5.845 -6.375 5.25 C-5 4 -5 4 -2 3 C-1.34 2.01 -0.68 1.02 0 0 Z " fill="#262626" transform="translate(653,528)"/>
<path d="M0 0 C0.619 0.186 1.238 0.371 1.875 0.562 C4.042 1.237 4.042 1.237 6 0 C5.526 4.317 2.966 6.336 -0.062 9.25 C-0.982 10.142 -1.901 11.034 -2.848 11.953 C-3.558 12.629 -4.268 13.304 -5 14 C-5.33 13.34 -5.66 12.68 -6 12 C-4.785 9.18 -4.785 9.18 -3.062 5.875 C-2.497 4.779 -1.931 3.684 -1.348 2.555 C-0.903 1.712 -0.458 0.869 0 0 Z " fill="#DF3A36" transform="translate(282,837)"/>
<path d="M0 0 C2 2 2 2 2.125 5.625 C2.084 6.739 2.043 7.853 2 9 C1.34 8.67 0.68 8.34 0 8 C0 10.97 0 13.94 0 17 C-0.99 17 -1.98 17 -3 17 C-3.66 18.32 -4.32 19.64 -5 21 C-6.332 18.336 -5.698 17.441 -4.785 14.648 C-4.511 13.798 -4.237 12.947 -3.955 12.07 C-3.661 11.181 -3.366 10.291 -3.062 9.375 C-2.772 8.478 -2.481 7.581 -2.182 6.656 C-1.461 4.435 -0.734 2.217 0 0 Z " fill="#2A2C2B" transform="translate(262,432)"/>
<path d="M0 0 C0.33 0 0.66 0 1 0 C2.313 6.891 2.535 14.012 2 21 C1.34 21.66 0.68 22.32 0 23 C-0.33 19.7 -0.66 16.4 -1 13 C-1.33 13 -1.66 13 -2 13 C-1.859 11.208 -1.712 9.416 -1.562 7.625 C-1.441 6.128 -1.441 6.128 -1.316 4.602 C-1 2 -1 2 0 0 Z " fill="#191A19" transform="translate(246,498)"/>
<path d="M0 0 C0.66 0 1.32 0 2 0 C2 4.62 2 9.24 2 14 C1.34 14 0.68 14 0 14 C-0.33 13.01 -0.66 12.02 -1 11 C-1.99 11.33 -2.98 11.66 -4 12 C-3.335 7.611 -1.812 4.019 0 0 Z " fill="#292929" transform="translate(326,602)"/>
<path d="M0 0 C4.95 0 9.9 0 15 0 C15.33 0.99 15.66 1.98 16 3 C13.36 3.33 10.72 3.66 8 4 C8 3.34 8 2.68 8 2 C5.69 2.33 3.38 2.66 1 3 C0.67 2.01 0.34 1.02 0 0 Z " fill="#191818" transform="translate(272,568)"/>
<path d="M0 0 C0.66 0.33 1.32 0.66 2 1 C2.625 4.062 2.625 4.062 3 7 C2.361 7.124 1.721 7.247 1.062 7.375 C0.042 7.684 0.042 7.684 -1 8 C-1.33 8.66 -1.66 9.32 -2 10 C-1.01 9.67 -0.02 9.34 1 9 C1.33 9.66 1.66 10.32 2 11 C0.02 11.33 -1.96 11.66 -4 12 C-3.523 10.374 -3.043 8.749 -2.562 7.125 C-2.296 6.22 -2.029 5.315 -1.754 4.383 C-1 2 -1 2 0 0 Z " fill="#2F312E" transform="translate(299,666)"/>
<path d="M0 0 C1.671 0.062 1.671 0.062 3.375 0.125 C0.725 3.756 -1.643 6.024 -5.625 8.125 C-5.75 5.25 -5.75 5.25 -5.625 2.125 C-3.625 0.125 -3.625 0.125 0 0 Z " fill="#2B2B2B" transform="translate(691.625,493.875)"/>
<path d="M0 0 C-1.561 3.831 -3.914 6.281 -7 9 C-9.312 9.812 -9.312 9.812 -11 10 C-9.159 5.214 -5.329 0 0 0 Z " fill="#171A17" transform="translate(311,821)"/>
<path d="M0 0 C1.32 0.66 2.64 1.32 4 2 C3.24 3.319 2.467 4.63 1.688 5.938 C1.258 6.668 0.829 7.399 0.387 8.152 C-1 10 -1 10 -4 11 C-3.523 9.541 -3.043 8.083 -2.562 6.625 C-2.296 5.813 -2.029 5.001 -1.754 4.164 C-1 2 -1 2 0 0 Z " fill="#252826" transform="translate(286,372)"/>
<path d="M0 0 C1.431 2.862 2.407 4.996 3.188 8 C3.367 8.66 3.546 9.32 3.73 10 C4.036 12.265 3.681 13.835 3 16 C3 15.01 3 14.02 3 13 C2.34 13 1.68 13 1 13 C0.67 13.66 0.34 14.32 0 15 C0 10.05 0 5.1 0 0 Z " fill="#AA2C25" transform="translate(773,212)"/>
<path d="M0 0 C0.33 0 0.66 0 1 0 C1 3.63 1 7.26 1 11 C0.34 11 -0.32 11 -1 11 C-2.551 8.536 -3.03 7.319 -2.75 4.375 C-2 2 -2 2 0 0 Z " fill="#141414" transform="translate(319,622)"/>
<path d="M0 0 C0.99 0 1.98 0 3 0 C3.33 2.31 3.66 4.62 4 7 C2.02 7.99 2.02 7.99 0 9 C0 6.03 0 3.06 0 0 Z " fill="#161817" transform="translate(760,136)"/>
<path d="M0 0 C0 3.961 -1.349 4.829 -4 7.688 C-4.743 8.496 -5.485 9.304 -6.25 10.137 C-6.827 10.752 -7.405 11.366 -8 12 C-9.32 11.67 -10.64 11.34 -12 11 C-11.469 10.541 -10.938 10.082 -10.391 9.609 C-6.817 6.505 -3.281 3.418 0 0 Z " fill="#332221" transform="translate(429,710)"/>
<path d="M0 0 C-1.875 3.875 -1.875 3.875 -3 5 C-4.519 5.072 -6.042 5.084 -7.562 5.062 C-8.389 5.053 -9.215 5.044 -10.066 5.035 C-10.704 5.024 -11.343 5.012 -12 5 C-9.933 2.933 -8.694 2.355 -6 1.375 C-4.948 0.984 -4.948 0.984 -3.875 0.586 C-2 0 -2 0 0 0 Z " fill="#2D2E2D" transform="translate(524,160)"/>
<path d="M0 0 C0.99 0 1.98 0 3 0 C3 2.64 3 5.28 3 8 C1.02 8.99 1.02 8.99 -1 10 C-0.67 6.7 -0.34 3.4 0 0 Z " fill="#3E3F3E" transform="translate(243,510)"/>
<path d="M0 0 C0.66 0.33 1.32 0.66 2 1 C2 5.62 2 10.24 2 15 C-0.665 12.335 -0.418 10.649 -0.688 6.938 C-0.817 5.311 -0.817 5.311 -0.949 3.652 C-0.966 2.777 -0.983 1.902 -1 1 C-0.67 0.67 -0.34 0.34 0 0 Z " fill="#151415" transform="translate(254,466)"/>
<path d="M0 0 C2.312 -0.188 2.312 -0.188 5 0 C5.99 0.99 6.98 1.98 8 3 C5.03 3.66 2.06 4.32 -1 5 C-0.67 3.35 -0.34 1.7 0 0 Z " fill="#343435" transform="translate(323,666)"/>
<path d="M0 0 C0.33 0 0.66 0 1 0 C1 3.96 1 7.92 1 12 C0.34 12 -0.32 12 -1 12 C-1.217 10.824 -1.217 10.824 -1.438 9.625 C-1.878 7.036 -1.878 7.036 -3 5 C-1.625 2.375 -1.625 2.375 0 0 Z " fill="#131614" transform="translate(295,356)"/>
<path d="M0 0 C0.33 0.66 0.66 1.32 1 2 C1.99 2.33 2.98 2.66 4 3 C1.69 5.31 -0.62 7.62 -3 10 C-3.33 9.34 -3.66 8.68 -4 8 C-3.223 6.055 -3.223 6.055 -2.062 3.875 C-1.492 2.788 -1.492 2.788 -0.91 1.68 C-0.61 1.125 -0.309 0.571 0 0 Z " fill="#BB302F" transform="translate(280,841)"/>
<path d="M0 0 C3.716 -0.27 6.457 -0.181 10 1 C10 1.66 10 2.32 10 3 C6.04 3 2.08 3 -2 3 C-1.34 2.01 -0.68 1.02 0 0 Z " fill="#151516" transform="translate(493,173)"/>
<path d="M0 0 C1.32 0.33 2.64 0.66 4 1 C2.02 3.31 0.04 5.62 -2 8 C-2.66 7.34 -3.32 6.68 -4 6 C-3.67 5.34 -3.34 4.68 -3 4 C-2.34 4 -1.68 4 -1 4 C-0.67 2.68 -0.34 1.36 0 0 Z " fill="#2D2D2D" transform="translate(611,566)"/>
<path d="M0 0 C-0.99 1.485 -0.99 1.485 -2 3 C-6.172 3.315 -9.942 2.984 -14 2 C-14 1.67 -14 1.34 -14 1 C-4.59 -0.148 -4.59 -0.148 0 0 Z " fill="#3E3E3D" transform="translate(622,137)"/>
<path d="M0 0 C0.66 0.33 1.32 0.66 2 1 C1.824 3.379 1.303 4.702 -0.402 6.379 C-1.906 7.621 -3.451 8.814 -5 10 C-5.66 9.67 -6.32 9.34 -7 9 C-4.69 6.03 -2.38 3.06 0 0 Z " fill="#272A2B" transform="translate(752,122)"/>
<path d="M0 0 C0.66 0 1.32 0 2 0 C1.329 4.194 -0.856 7.403 -3 11 C-3.75 9.438 -3.75 9.438 -4 7 C-2.869 4.497 -1.479 2.33 0 0 Z " fill="#DE3B36" transform="translate(289,824)"/>
<path d="M0 0 C-0.573 2.867 -0.861 3.861 -3 6 C-4.32 6 -5.64 6 -7 6 C-7 5.01 -7 4.02 -7 3 C-2.778 0 -2.778 0 0 0 Z " fill="#191A19" transform="translate(551,285)"/>
<path d="M0 0 C0.66 0.33 1.32 0.66 2 1 C0.02 3.31 -1.96 5.62 -4 8 C-4.66 7.67 -5.32 7.34 -6 7 C-6 6.34 -6 5.68 -6 5 C-5.34 5 -4.68 5 -4 5 C-3.711 4.361 -3.423 3.721 -3.125 3.062 C-2 1 -2 1 0 0 Z " fill="#282829" transform="translate(658,147)"/>
<path d="M0 0 C0.66 0.66 1.32 1.32 2 2 C-1.465 4.97 -1.465 4.97 -5 8 C-5.66 7.34 -6.32 6.68 -7 6 C-4.69 4.02 -2.38 2.04 0 0 Z " fill="#363635" transform="translate(558,617)"/>
<path d="M0 0 C0.33 0.99 0.66 1.98 1 3 C-0.215 4.824 -0.215 4.824 -1.938 6.688 C-2.503 7.31 -3.069 7.933 -3.652 8.574 C-4.097 9.045 -4.542 9.515 -5 10 C-5.66 9.01 -6.32 8.02 -7 7 C-6.01 6.34 -5.02 5.68 -4 5 C-3.67 4.01 -3.34 3.02 -3 2 C-2.01 1.34 -1.02 0.68 0 0 Z " fill="#282928" transform="translate(591,230)"/>
<path d="M0 0 C-0.33 1.65 -0.66 3.3 -1 5 C-2.98 5 -4.96 5 -7 5 C-7.33 4.34 -7.66 3.68 -8 3 C-2.25 0 -2.25 0 0 0 Z " fill="#3B3B3A" transform="translate(486,176)"/>
<path d="M0 0 C0.808 0.102 1.616 0.204 2.449 0.309 C3.064 0.392 3.679 0.476 4.312 0.562 C4.312 1.222 4.312 1.882 4.312 2.562 C2.875 2.617 1.438 2.655 0 2.688 C-0.801 2.711 -1.601 2.734 -2.426 2.758 C-4.688 2.562 -4.688 2.562 -7.688 0.562 C-4.593 -0.469 -3.161 -0.412 0 0 Z " fill="#121111" transform="translate(563.6875,149.4375)"/>
<path d="M0 0 C0.883 2.467 1.131 3.639 0.223 6.141 C-0.16 6.837 -0.543 7.533 -0.938 8.25 C-1.318 8.956 -1.698 9.663 -2.09 10.391 C-2.39 10.922 -2.691 11.453 -3 12 C-3.66 12 -4.32 12 -5 12 C-3.689 7.766 -2.056 3.926 0 0 Z " fill="#C02D2A" transform="translate(299,802)"/>
<path d="M0 0 C2.125 0.375 2.125 0.375 4 1 C2.377 2.709 0.707 4.374 -1 6 C-1.66 6 -2.32 6 -3 6 C-2.427 3.133 -2.139 2.139 0 0 Z " fill="#2C2B2C" transform="translate(255,891)"/>
<path d="M0 0 C2.64 0 5.28 0 8 0 C8.33 1.32 8.66 2.64 9 4 C8.67 3.34 8.34 2.68 8 2 C5.69 2.33 3.38 2.66 1 3 C0.67 2.01 0.34 1.02 0 0 Z " fill="#100F0F" transform="translate(272,568)"/>
<path d="M0 0 C0.66 0.33 1.32 0.66 2 1 C0.02 3.31 -1.96 5.62 -4 8 C-4.99 7.01 -5.98 6.02 -7 5 C-4.69 3.35 -2.38 1.7 0 0 Z " fill="#292A29" transform="translate(661,246)"/>
<path d="M0 0 C0.889 3.303 1.463 6.623 2 10 C1.01 10.33 0.02 10.66 -1 11 C-1.027 9.354 -1.046 7.708 -1.062 6.062 C-1.074 5.146 -1.086 4.229 -1.098 3.285 C-1 1 -1 1 0 0 Z " fill="#191818" transform="translate(769,149)"/>
<path d="M0 0 C0.66 0 1.32 0 2 0 C2.33 0.99 2.66 1.98 3 3 C1.35 4.32 -0.3 5.64 -2 7 C-2.33 6.34 -2.66 5.68 -3 5 C-1.688 2.375 -1.688 2.375 0 0 Z " fill="#393A39" transform="translate(225,913)"/>
<path d="M0 0 C0.66 0.33 1.32 0.66 2 1 C-2.75 5.875 -2.75 5.875 -5 7 C-5.33 6.01 -5.66 5.02 -6 4 C-4.02 2.68 -2.04 1.36 0 0 Z " fill="#323131" transform="translate(588,327)"/>
<path d="M0 0 C0.66 0.33 1.32 0.66 2 1 C1.67 3.31 1.34 5.62 1 8 C0.34 8 -0.32 8 -1 8 C-1.042 5.667 -1.041 3.333 -1 1 C-0.67 0.67 -0.34 0.34 0 0 Z " fill="#141413" transform="translate(793,297)"/>
<path d="M0 0 C0.66 0.66 1.32 1.32 2 2 C0.35 3.65 -1.3 5.3 -3 7 C-3.99 6.67 -4.98 6.34 -6 6 C-4.02 4.02 -2.04 2.04 0 0 Z " fill="#2B2C2C" transform="translate(688,197)"/>
<path d="M0 0 C0.66 0.33 1.32 0.66 2 1 C2 2.98 2 4.96 2 7 C1.34 7 0.68 7 0 7 C-0.66 5.35 -1.32 3.7 -2 2 C-1.34 1.34 -0.68 0.68 0 0 Z " fill="#0E0F0F" transform="translate(262,834)"/>
<path d="M0 0 C2 2 2 2 2.125 5.625 C2.084 6.739 2.043 7.853 2 9 C1.34 8.34 0.68 7.68 0 7 C-0.99 7.495 -0.99 7.495 -2 8 C-1.34 5.36 -0.68 2.72 0 0 Z " fill="#343635" transform="translate(262,432)"/>
<path d="M0 0 C0.66 0 1.32 0 2 0 C2.33 2.64 2.66 5.28 3 8 C2.01 8 1.02 8 0 8 C0 5.36 0 2.72 0 0 Z " fill="#333332" transform="translate(793,206)"/>
<path d="M0 0 C0.66 0.66 1.32 1.32 2 2 C0.35 3.65 -1.3 5.3 -3 7 C-3.66 6.67 -4.32 6.34 -5 6 C-3.35 4.02 -1.7 2.04 0 0 Z " fill="#C72F2A" transform="translate(739,174)"/>
<path d="M0 0 C0.66 0 1.32 0 2 0 C1.602 2.886 1.21 3.822 -1.062 5.75 C-1.702 6.162 -2.341 6.575 -3 7 C-3.66 6.67 -4.32 6.34 -5 6 C-3.384 3.959 -1.714 1.959 0 0 Z " fill="#37221E" transform="translate(614,169)"/>
<path d="M0 0 C0 0.66 0 1.32 0 2 C-2.97 2 -5.94 2 -9 2 C-9 1.34 -9 0.68 -9 0 C-5.522 -1.159 -3.541 -0.708 0 0 Z " fill="#141414" transform="translate(545,158)"/>
<path d="M0 0 C0.66 0.66 1.32 1.32 2 2 C-0.97 4.475 -0.97 4.475 -4 7 C-4.66 6.67 -5.32 6.34 -6 6 C-4.02 4.02 -2.04 2.04 0 0 Z " fill="#3C3D3C" transform="translate(444,723)"/>
<path d="M0 0 C0.66 0.66 1.32 1.32 2 2 C0.68 3.32 -0.64 4.64 -2 6 C-2.99 5.67 -3.98 5.34 -5 5 C-3.35 3.35 -1.7 1.7 0 0 Z " fill="#373837" transform="translate(639,542)"/>
<path d="M0 0 C0.66 0.33 1.32 0.66 2 1 C1.312 2.938 1.312 2.938 0 5 C-2.625 5.75 -2.625 5.75 -5 6 C-3.35 4.02 -1.7 2.04 0 0 Z " fill="#2F2F2F" transform="translate(653,528)"/>
<path d="M0 0 C0.66 0 1.32 0 2 0 C2 2.31 2 4.62 2 7 C1.01 6.67 0.02 6.34 -1 6 C-0.67 4.02 -0.34 2.04 0 0 Z " fill="#191A19" transform="translate(310,329)"/>
<path d="M0 0 C2.125 0.938 2.125 0.938 4 2 C3.67 2.66 3.34 3.32 3 4 C1.35 4 -0.3 4 -2 4 C-2 3.01 -2 2.02 -2 1 C-1.34 0.67 -0.68 0.34 0 0 Z " fill="#181818" transform="translate(653,252)"/>
<path d="M0 0 C1.65 0 3.3 0 5 0 C5.33 0.99 5.66 1.98 6 3 C4.02 3 2.04 3 0 3 C0 2.01 0 1.02 0 0 Z " fill="#151415" transform="translate(434,205)"/>
<path d="M0 0 C2.062 0.438 2.062 0.438 4 1 C2.35 2.65 0.7 4.3 -1 6 C-1.043 4.334 -1.041 2.666 -1 1 C-0.67 0.67 -0.34 0.34 0 0 Z " fill="#C8302B" transform="translate(618,159)"/>
<path d="M0 0 C0.33 0.99 0.66 1.98 1 3 C-0.65 3.33 -2.3 3.66 -4 4 C-4.33 3.01 -4.66 2.02 -5 1 C-3.35 0.67 -1.7 0.34 0 0 Z " fill="#111011" transform="translate(317,839)"/>
<path d="M0 0 C0.66 0 1.32 0 2 0 C1.75 2.875 1.75 2.875 1 6 C-1.062 7.375 -1.062 7.375 -3 8 C-1.125 2.25 -1.125 2.25 0 0 Z " fill="#2D2F2F" transform="translate(263,828)"/>
<path d="M0 0 C0 3 0 3 -2 5.188 C-2.66 5.786 -3.32 6.384 -4 7 C-4.99 6.67 -5.98 6.34 -7 6 C-4.69 4.02 -2.38 2.04 0 0 Z " fill="#2E2420" transform="translate(324,807)"/>
<path d="M0 0 C0.66 0.33 1.32 0.66 2 1 C0.63 4.161 0.011 4.993 -3 7 C-2.25 2.25 -2.25 2.25 0 0 Z " fill="#2A2A2A" transform="translate(369,791)"/>
<path d="M0 0 C0.99 0.33 1.98 0.66 3 1 C1.35 2.65 -0.3 4.3 -2 6 C-2.33 5.34 -2.66 4.68 -3 4 C-2.01 2.68 -1.02 1.36 0 0 Z " fill="#3A3A39" transform="translate(414,750)"/>
<path d="M0 0 C2.31 0 4.62 0 7 0 C7 0.99 7 1.98 7 3 C4.69 2.67 2.38 2.34 0 2 C0 1.34 0 0.68 0 0 Z " fill="#0F100F" transform="translate(329,664)"/>
<path d="M0 0 C1.65 0.33 3.3 0.66 5 1 C4.67 1.99 4.34 2.98 4 4 C2.35 3.67 0.7 3.34 -1 3 C-0.67 2.01 -0.34 1.02 0 0 Z " fill="#161514" transform="translate(319,560)"/>
<path d="M0 0 C1.98 0.99 1.98 0.99 4 2 C3.34 3.98 2.68 5.96 2 8 C1.34 7.67 0.68 7.34 0 7 C0 4.69 0 2.38 0 0 Z " fill="#141517" transform="translate(768,368)"/>
<path d="M0 0 C0 3 0 3 -1.5 4.688 C-1.995 5.121 -2.49 5.554 -3 6 C-3.99 5.67 -4.98 5.34 -6 5 C-2.25 1.125 -2.25 1.125 0 0 Z " fill="#262625" transform="translate(649,255)"/>
<path d="M0 0 C2.97 0.495 2.97 0.495 6 1 C6 1.99 6 2.98 6 4 C4.02 4 2.04 4 0 4 C0 2.68 0 1.36 0 0 Z " fill="#141415" transform="translate(425,212)"/>
<path d="M0 0 C0 0.66 0 1.32 0 2 C-2.875 2.125 -2.875 2.125 -6 2 C-6.66 1.34 -7.32 0.68 -8 0 C-4.947 -0.981 -3.053 -0.981 0 0 Z " fill="#333432" transform="translate(567,148)"/>
</svg>
